# xmcd
#
# Track frame offsets:
#	150
#	15987
#	29750
#	40370
#	53765
#	69237
#	84732
#	93330
#	107837
#	124065
#	136030
#	149090
#	166840
#	179985
#	192085
#	214825
#	231577
#	244950
#
# Disc length: 3382 seconds
#
# Revision: 2
# Processed by: cddbd v1.5.1PL2 Copyright (c) Steve Scherf et al.
# Submitted via: audiograbber 1.83.01
#
DISCID=0a0d3412
DTITLE=Collection - Modernoi Rythmoi 2 [CD 5)
DYEAR=1999
DGENRE=Oldies
TTITLE0=Aphrodite's Child - It's Five O'clock
TTITLE1=Pashalis - Filoi ki Adelfoi
TTITLE2=Kostas Tournas - Neraida
TTITLE3=Vicky Leandros - Ei Kazanova
TTITLE4=The Dragons - Acropolis Yanka
TTITLE5=Stavros Zoras - Apopse Thimisou
TTITLE6=The Blue Birds - Julie
TTITLE7=Poll - I Genia Mas
TTITLE8=The Olympians - Mammy Blue
TTITLE9=Elpida - Koita to Fos
TTITLE10=Kostas Tournas - Den Metanoiono
TTITLE11=The Blue Birds - O Xylinos Stavros
TTITLE12=Lida Kai Spyros - Oraia pou 'nai Simera 
TTITLE13=Robert Williams - Mi mou Les Geia Hara
TTITLE14=Stavros Logaridis - Close the Door
TTITLE15=Dakis - Filosofise
TTITLE16=Tony and Vana Pinelli - Ston kipo tis Agapis 
TTITLE17=Errika and Margarita Broyer - My Boy Lollipop
EXTD=
EXTT0=
EXTT1=
EXTT2=
EXTT3=
EXTT4=
EXTT5=
EXTT6=
EXTT7=
EXTT8=
EXTT9=
EXTT10=
EXTT11=
EXTT12=
EXTT13=
EXTT14=
EXTT15=
EXTT16=
EXTT17=
PLAYORDER=
